<svg xmlns="http://www.w3.org/2000/svg" width="327.756" height="50.178"><path d="M.624 42.484l16.91-38.187C18.712 1.663 20.861.069 23.771.069h.624c2.911 0 4.99 1.594 6.168 4.228l16.911 38.188c.347.763.554 1.455.554 2.148 0 2.842-2.218 5.129-5.059 5.129-2.495 0-4.158-1.456-5.128-3.674l-3.257-7.623H13.237l-3.396 7.97c-.901 2.079-2.703 3.327-4.921 3.327-2.772 0-4.92-2.218-4.92-4.99 0-.763.277-1.525.624-2.288zm30.009-13.445l-6.723-16.01-6.723 16.01h13.446zM54.678 6.168A5.295 5.295 0 0 1 60.014.832H74.5c11.573 0 18.573 6.861 18.573 16.771v.139c0 11.228-8.732 17.05-19.613 17.05h-8.109v9.633c0 2.98-2.356 5.337-5.336 5.337s-5.336-2.356-5.336-5.337V6.168zm19.129 19.129c5.336 0 8.456-3.188 8.456-7.347v-.139c0-4.782-3.327-7.346-8.664-7.346h-8.248v14.831h8.456zm23.283-.069v-.139C97.09 11.297 107.971 0 122.942 0c14.969 0 25.713 11.158 25.713 24.95v.139c0 13.792-10.881 25.089-25.852 25.089S97.09 39.02 97.09 25.228zm40.407 0v-.139c0-8.316-6.1-15.247-14.693-15.247s-14.555 6.792-14.555 15.108v.139c0 8.316 6.1 15.247 14.693 15.247s14.555-6.792 14.555-15.108zm19.4-19.475c0-2.98 2.355-5.337 5.336-5.337s5.336 2.356 5.336 5.337v38.672c0 2.98-2.355 5.337-5.336 5.337s-5.336-2.356-5.336-5.337V5.753zm18.365 36.731l16.91-38.188c1.178-2.634 3.326-4.228 6.236-4.228h.625c2.91 0 4.99 1.594 6.168 4.228l16.91 38.188c.346.763.555 1.455.555 2.148 0 2.842-2.219 5.129-5.059 5.129-2.496 0-4.16-1.456-5.129-3.674l-3.258-7.623h-21.346l-3.396 7.97c-.9 2.079-2.703 3.327-4.92 3.327-2.773 0-4.922-2.218-4.922-4.99.001-.762.279-1.524.626-2.287zm30.008-13.445l-6.723-16.01-6.723 16.01h13.446zm28.135 8.802c3.465 0 6.029 2.564 6.029 5.892v.138c0 3.327-2.564 5.892-6.029 5.892s-6.029-2.564-6.029-5.892v-.138c-.001-3.328 2.564-5.892 6.029-5.892zm42.135-11.609c1.121 3.442.527 10.817.527 12.688a26.213 26.213 0 0 1 3.36-1.908c1.2-.571 2.449-1.16 3.75-1.774a80.592 80.592 0 0 0 4.012-2.038 33.268 33.268 0 0 0 4.14-2.695l.043 9.816c-1.791 1.336-3.867 2.59-6.222 3.761s-4.834 2.204-7.427 3.096a59.917 59.917 0 0 1-7.869 2.11c-2.646.517-5.151.773-7.521.773-1.705 0-3.295-.152-4.77-.455-1.474-.304-2.767-.781-3.88-1.431-1.112-.65-2.017-1.5-2.71-2.551s-1.112-2.323-1.257-3.815a8.919 8.919 0 0 1-1.192.177c-.39.028-.773.043-1.148.043-.463 0-.896-.015-1.301-.043a2.164 2.164 0 0 1-1.041-.329c-.288-.192-.52-.499-.693-.921-.174-.422-.26-1.03-.26-1.817 0-.701.174-1.351.521-1.951.347-.6.751-1.134 1.214-1.601.462-.466.925-.875 1.387-1.224.463-.354.81-.629 1.041-.835a177.396 177.396 0 0 0 3.945-3.504 31.586 31.586 0 0 0 3.034-3.266c1.012-1.243 1.813-2.258 2.406-3.045s1.294-1.724 2.103-2.804c.81-1.083 1.793-2.402 2.947-3.967a228.669 228.669 0 0 1 4.51-5.853 15.91 15.91 0 0 1 1.257-1.532 9.635 9.635 0 0 1 1.539-1.336 8.128 8.128 0 0 1 1.863-.964c.681-.249 1.438-.373 2.277-.373 1.388 0 2.455.156 3.216.463.742.304 1.299.679 1.647 1.116a2.8 2.8 0 0 1 .606 1.38c.051.48.088.896.088 1.25 0 .701-.284 1.474-.825 2.319a26.834 26.834 0 0 1-1.821 2.457c-.671.788-1.301 1.51-1.892 2.167-.594.658-.933 1.149-1.02 1.471 0 .903.063 1.73.201 2.475.131.744.312 1.474.529 2.189.224.717.447 1.479.686 2.281m-9.228-.188l-12.009 12.619c.348 0 .73.221 1.149.661.419.437.903.918 1.452 1.445a11.011 11.011 0 0 0 1.908 1.445c.722.437 1.545.658 2.471.658 1.127 0 2.06-.188 2.796-.571.737-.379 1.323-.881 1.756-1.51.433-.628.737-1.358.911-2.193.173-.831.98-4.379.604-7.946" fill="#FFF"/><path fill="#FFF" d="M299.838 49.419c-2.694 0-5.058-.499-7.081-1.5-2.029-1.001-3.713-2.349-5.064-4.039-1.343-1.69-2.362-3.646-3.035-5.867a24.046 24.046 0 0 1-1.011-6.995c0-1.6.303-3.5.902-5.711.607-2.211 1.229-4.173 1.879-5.886a27.145 27.145 0 0 1 2.436-4.899 19.605 19.605 0 0 1 3.431-4.107 15.798 15.798 0 0 1 4.395-2.825c1.626-.698 3.432-1.048 5.413-1.048 1.617 0 3.127.261 4.515.781 1.389.52 2.594 1.246 3.62 2.186a9.858 9.858 0 0 1 2.414 3.399c.577 1.326.866 2.815.866 4.458 0 1.752-.585 3.717-1.762 5.893-1.171 2.178-2.536 4.042-4.105 5.596-1.56 1.553-3.425 2.94-5.578 4.154-2.16 1.214-4.501 2.16-7.017 2.839.436.767.861 1.402 1.28 1.908.42.51.853.907 1.285 1.189.434.282.89.48 1.372.592.479.112.99.17 1.54.17 1.734 0 3.562-.339 5.484-1.019a35.912 35.912 0 0 0 5.614-2.543 46.974 46.974 0 0 0 5.159-3.328c1.619-1.199 2.991-2.337 4.118-3.41l5.592 5.679a57.788 57.788 0 0 1-8.106 7.189 60.563 60.563 0 0 1-4.009 2.634 35.876 35.876 0 0 1-4.509 2.297 30.296 30.296 0 0 1-4.899 1.608 22.093 22.093 0 0 1-5.139.605zm-5.786-20.648c1.047 0 2.181-.264 3.418-.784a15.645 15.645 0 0 0 3.438-2.016c1.056-.82 2.096-1.922 3.105-3.306 1.02-1.384 1.526-2.529 1.526-3.433 0-1.271-.238-2.32-.715-3.14-.485-.82-1.07-1.228-1.764-1.228-1.251 0-2.318.228-3.2.679a6.856 6.856 0 0 0-2.218 1.759 9.012 9.012 0 0 0-1.438 2.457c-.362.921-.781 2.055-1.265 3.414-.477 1.354-.745 2.471-.802 3.349a36.868 36.868 0 0 0-.085 2.249z"/><ellipse fill="#FFF" cx="323.774" cy="32.167" rx="3.982" ry="4.003"/></svg>