<svg height="910.222" viewBox="-21 -21 682.667 682.667" width="910.222" xmlns="http://www.w3.org/2000/svg"><path d="M451.484 109.723c-1.87 0-8.351.922-14.406 2.043-26.765 4.992-184.539 37.148-187.234 38.171-4.172 1.579-8.301 5.32-10.258 9.301l-1.66 3.375s-.781 238.711-1.992 241.395c-1.836 4.094-5.918 7.965-9.68 9.199-1.781.586-8.832 2.207-15.664 3.598-31.653 6.445-43.41 11.09-53.36 21.086-5.648 5.672-9.832 13.418-11.64 21.543-1.727 7.77-1.145 19.394 1.316 26.46 5.14 14.747 16.54 25.2 31.89 29.223 14.493 3.793 41.618-.43 55.497-8.637 5.793-3.433 13.254-10.636 17.137-16.558 1.535-2.344 3.847-7.067 5.136-10.492 4.52-12.008 4.66-225.86 5.239-228.555.976-4.566 4.03-7.914 8.238-9.047 3.789-1.023 155.715-31.765 159.988-32.375 4.024-.57 7.824.863 9.653 3.652 1.234 1.88 4.296 149.41.156 154.325-3.008 3.578-9.27 4.957-24.707 8.187-23.496 4.906-31.54 7.235-40.531 11.73-11.239 5.618-17.477 11.774-22.297 21.993-3.407 7.226-4.684 12.648-4.672 19.844.02 12.867 4.36 22.925 14.144 32.765 6.723 6.766 12.871 10.313 21.352 12.309 9.527 2.246 28.933.765 42.207-3.219 18.785-5.64 32.047-19.312 37.48-38.625a42.95 42.95 0 0 0 1.602-11.574c.027-42.418.16-299.59-.402-301.54-1.77-6.105-6.329-9.59-12.532-9.577zm0 0"/><path d="M320 0C143.266 0 0 143.266 0 320s143.266 320 320 320 320-143.266 320-320S496.734 0 320 0zm0 613.121C158.117 613.121 26.879 481.883 26.879 320S158.117 26.879 320 26.879 613.121 158.117 613.121 320 481.883 613.121 320 613.121zm0 0"/></svg>