<svg width="220" height="26" xmlns="http://www.w3.org/2000/svg" xmlns:xlink="http://www.w3.org/1999/xlink"><defs><path id="a" d="M0 0h74.923v23.952H0z"/></defs><g fill="none" fill-rule="evenodd"><path d="M104.905 21.428l-1.066-2.545h-5.882l-1.066 2.545H94.5l5.28-12.039h2.39l5.212 12.039h-2.477zm-6.123-4.523h4.231l-2.098-5.056-2.133 5.056zm15.728-5.297c-.648-.207-1.218-.31-1.711-.31-.55 0-.986.103-1.307.31-.321.206-.482.493-.482.86 0 .332.112.61.336.834.223.223.504.407.842.55.339.143.8.301 1.385.473.814.24 1.482.482 2.004.722.521.241.966.597 1.332 1.067.367.47.55 1.089.55 1.857 0 .734-.197 1.373-.593 1.918-.395.544-.94.96-1.633 1.247-.694.286-1.488.43-2.382.43a7.49 7.49 0 0 1-2.752-.525 7.814 7.814 0 0 1-2.34-1.402l.964-1.96a7.05 7.05 0 0 0 2.047 1.324c.756.321 1.461.482 2.115.482.642 0 1.147-.124 1.513-.37.367-.247.55-.582.55-1.006 0-.344-.111-.628-.335-.852a2.496 2.496 0 0 0-.85-.541 15.654 15.654 0 0 0-1.411-.465c-.814-.24-1.48-.476-1.995-.705a3.466 3.466 0 0 1-1.324-1.04c-.367-.465-.55-1.075-.55-1.832 0-.7.186-1.31.558-1.832.373-.521.9-.925 1.582-1.212.683-.287 1.47-.43 2.365-.43.78 0 1.55.115 2.313.344a7.81 7.81 0 0 1 2.038.929l-.928 2.012a8.713 8.713 0 0 0-1.9-.877zm10.8 0c-.647-.207-1.217-.31-1.71-.31-.55 0-.986.103-1.307.31-.322.206-.482.493-.482.86 0 .332.112.61.335.834.224.223.505.407.843.55.338.143.8.301 1.385.473.814.24 1.481.482 2.003.722.522.241.966.597 1.333 1.067s.55 1.089.55 1.857c0 .734-.197 1.373-.593 1.918-.396.544-.94.96-1.634 1.247-.694.286-1.488.43-2.382.43-.94 0-1.857-.175-2.752-.525a7.814 7.814 0 0 1-2.339-1.402l.964-1.96a7.05 7.05 0 0 0 2.046 1.324c.757.321 1.462.482 2.116.482.642 0 1.146-.124 1.513-.37.367-.247.55-.582.55-1.006 0-.344-.111-.628-.335-.852a2.496 2.496 0 0 0-.851-.541 15.654 15.654 0 0 0-1.41-.465 16.59 16.59 0 0 1-1.996-.705 3.466 3.466 0 0 1-1.324-1.04c-.367-.465-.55-1.075-.55-1.832 0-.7.186-1.31.559-1.832.372-.521.9-.925 1.582-1.212.682-.287 1.47-.43 2.365-.43.78 0 1.55.115 2.313.344a7.81 7.81 0 0 1 2.038.929l-.929 2.012a8.713 8.713 0 0 0-1.9-.877zm5.135-2.219h2.304v12.039h-2.304V9.389zm13.655 0h2.236v12.039h-2.184l-6.192-8.29v8.29h-2.253V9.389h2.184l6.209 8.307V9.389zm14.103 12.039l-1.067-2.545h-5.881l-1.067 2.545h-2.39l5.28-12.039h2.39l5.211 12.039h-2.476zm-6.123-4.523h4.23l-2.097-5.056-2.133 5.056zm8.72-7.516h9.82v2.047h-3.75v9.992h-2.321v-9.992h-3.75V9.389zm14.343 9.322c.539.539 1.261.808 2.167.808.906 0 1.62-.27 2.141-.808.522-.54.783-1.284.783-2.236V9.389h2.304v7.086c0 1.043-.212 1.952-.636 2.726a4.312 4.312 0 0 1-1.814 1.78c-.786.413-1.712.619-2.778.619-1.078 0-2.015-.206-2.812-.62a4.29 4.29 0 0 1-1.832-1.78c-.424-.773-.636-1.682-.636-2.725V9.389h2.305v7.086c0 .952.27 1.697.808 2.236zm17.645 2.717l-2.08-3.56a3.838 3.838 0 0 1-.43.017h-2.718v3.543h-2.304V9.389h5.022c1.559 0 2.763.361 3.611 1.084.849.722 1.273 1.742 1.273 3.061 0 .94-.204 1.743-.61 2.408-.408.665-1.001 1.164-1.78 1.496l2.648 3.99h-2.632zm-5.228-5.572h2.718c.87 0 1.536-.19 1.995-.568.458-.378.687-.94.687-1.685 0-.734-.229-1.284-.687-1.651-.46-.367-1.124-.55-1.995-.55h-2.718v4.454zm19.039 5.572l-1.067-2.545h-5.881l-1.067 2.545h-2.39l5.28-12.039h2.39l5.211 12.039H206.6zm-6.123-4.523h4.23l-2.097-5.056-2.133 5.056zm15.728-5.297c-.648-.207-1.218-.31-1.711-.31-.55 0-.986.103-1.307.31-.321.206-.482.493-.482.86 0 .332.112.61.336.834.223.223.504.407.842.55.338.143.8.301 1.385.473.814.24 1.482.482 2.003.722.522.241.966.597 1.333 1.067s.55 1.089.55 1.857c0 .734-.197 1.373-.593 1.918-.395.544-.94.96-1.634 1.247-.693.286-1.487.43-2.382.43-.94 0-1.857-.175-2.751-.525a7.814 7.814 0 0 1-2.34-1.402l.964-1.96a7.05 7.05 0 0 0 2.046 1.324c.757.321 1.462.482 2.116.482.642 0 1.146-.124 1.513-.37.367-.247.55-.582.55-1.006 0-.344-.111-.628-.335-.852a2.496 2.496 0 0 0-.851-.541 15.654 15.654 0 0 0-1.41-.465c-.814-.24-1.48-.476-1.995-.705a3.466 3.466 0 0 1-1.325-1.04c-.367-.465-.55-1.075-.55-1.832 0-.7.186-1.31.559-1.832.373-.521.9-.925 1.582-1.212.682-.287 1.47-.43 2.365-.43.78 0 1.55.115 2.313.344a7.81 7.81 0 0 1 2.038.929l-.929 2.012a8.713 8.713 0 0 0-1.9-.877z" fill="#FFF"/><g transform="translate(0 2)"><mask id="b" fill="#fff"><use xlink:href="#a"/></mask><path d="M27.861 16.682c-1.71 0-2.919-1.334-2.919-3.3 0-1.944 1.209-3.256 2.92-3.256 1.208-.022 2.143.475 2.804 1.289l2.372-1.696c-1.094-1.627-2.965-2.554-5.314-2.554-3.763 0-6.294 2.51-6.294 6.24 0 3.684 2.531 6.17 6.249 6.17 2.508 0 4.424-.994 5.45-2.69l-2.417-1.627c-.616.95-1.596 1.424-2.85 1.424zm29.76-1.401c-.372 1.04-1.381 1.83-2.864 1.83-1.186 0-1.922-.614-1.922-1.54 0-.973.655-1.384 2-1.384h2.786v1.094zm-2.06-8.139c-2.144 0-3.718.498-5.542 1.402l1.094 2.396c1.277-.7 2.567-1.062 3.662-1.062 1.687 0 2.567.746 2.567 2.034v.248h-3.401c-3.01 0-4.675 1.368-4.675 3.651 0 2.216 1.598 3.793 4.22 3.793 1.71 0 2.927-.57 3.856-1.588v1.33h3.44l-.022-7.888c-.023-2.735-1.916-4.316-5.2-4.316zm15.757.043l-3.013 7.55-3.006-7.55h-3.627l4.803 12.134-1.848 4.633h3.677l6.619-16.767h-3.605zM41.882 3.501h-3.22v2.948h3.037c2.007 0 3.148.966 3.148 2.73 0 1.808-1.14 2.797-3.148 2.797h-3.037V6.449H35.13v12.897h3.532v-4.422h3.22c4.06 0 6.385-2.185 6.385-5.87 0-3.504-2.326-5.553-6.385-5.553zM16.605 5.834h4.708V1.167h-4.708v4.667zm-1.177 1.167h7.063V0h-7.063v7.001zm-8.55-3.5H3.532v2.948h3.164c2.007 0 3.147.966 3.147 2.73 0 1.808-1.14 2.797-3.147 2.797H3.532V6.449H0v12.897h3.532v-4.422h3.346c4.06 0 6.386-2.185 6.386-5.87 0-3.504-2.326-5.553-6.386-5.553zm10.904 1.166h2.354V2.334h-2.354v2.333zm-2.354 14.679h3.531V9.212h-3.531v10.134z" fill="#FFF" mask="url(#b)"/></g><path fill="#FFF" d="M84 2h1.5v24H84zM198.656.776c.357.25.536.592.536 1.024 0 .299-.087.559-.26.78-.173.221-.41.372-.708.452.363.07.648.23.856.484.208.253.312.564.312.932 0 .48-.19.859-.568 1.136-.379.277-.893.416-1.544.416h-2.664V.4h2.576c.619 0 1.107.125 1.464.376zm-.964 1.716a.557.557 0 0 0 .204-.46.537.537 0 0 0-.204-.448c-.136-.107-.324-.157-.564-.152h-1.248v1.224h1.248c.24 0 .428-.055.564-.164zm.14 2.296a.577.577 0 0 0 .256-.5.553.553 0 0 0-.256-.48c-.17-.117-.405-.173-.704-.168h-1.248v1.328h1.248c.299 0 .533-.06.704-.18zM201.312.4h4.264v1.048h-3v1.216h2.696v1.048h-2.696v1.24h3.088V6h-4.352V.4zm5.792 0h4.68v1.072h-1.712V6h-1.264V1.472h-1.704V.4zM217.6 6l-.44-1.088h-2.592L214.128 6h-1.304l2.432-5.6h1.304l2.392 5.6H217.6zm-2.616-2.104h1.768l-.88-2.176-.888 2.176z"/></g></svg>