<svg height="682.66669pt" viewBox="-21 -21 682.66669 682.66669" width="682.66669pt" xmlns="http://www.w3.org/2000/svg"><path d="m451.484375 109.722656c-1.871094 0-8.351563.921875-14.40625 2.042969-26.765625 4.992187-184.539063 37.148437-187.234375 38.171875-4.171875 1.578125-8.300781 5.320312-10.257812 9.300781l-1.660157 3.375s-.78125 238.710938-1.992187 241.394531c-1.835938 4.09375-5.917969 7.964844-9.679688 9.199219-1.78125.585938-8.832031 2.207031-15.664062 3.597657-31.652344 6.445312-43.410156 11.089843-53.359375 21.085937-5.648438 5.671875-9.832031 13.417969-11.640625 21.542969-1.726563 7.769531-1.144532 19.394531 1.316406 26.460937 5.140625 14.746094 16.539062 25.199219 31.890625 29.222657 14.492187 3.792968 41.617187-.429688 55.496094-8.636719 5.792969-3.433594 13.253906-10.636719 17.136719-16.558594 1.535156-2.34375 3.847656-7.066406 5.136718-10.492187 4.519532-12.007813 4.660156-225.859376 5.238282-228.554688.976562-4.566406 4.03125-7.914062 8.238281-9.046875 3.789062-1.023437 155.714843-31.765625 159.988281-32.375 4.023438-.570313 7.824219.863281 9.652344 3.652344 1.234375 1.878906 4.296875 149.410156.15625 154.324219-3.007813 3.578124-9.269532 4.957031-24.707032 8.1875-23.496093 4.90625-31.539062 7.234374-40.53125 11.730468-11.238281 5.617188-17.476562 11.773438-22.296874 21.992188-3.40625 7.226562-4.683594 12.648437-4.671876 19.84375.019532 12.867187 4.359376 22.925781 14.144532 32.765625 6.722656 6.765625 12.871094 10.3125 21.351562 12.308593 9.527344 2.246094 28.933594.765626 42.207032-3.21875 18.785156-5.640624 32.046874-19.3125 37.480468-38.625 1.058594-3.773437 1.597656-7.65625 1.601563-11.574218.027343-42.417969.160156-299.589844-.402344-301.539063-1.769531-6.105469-6.328125-9.589843-12.53125-9.578125zm0 0"/><path d="m320 0c-176.734375 0-320 143.265625-320 320s143.265625 320 320 320 320-143.265625 320-320-143.265625-320-320-320zm0 613.121094c-161.882812 0-293.121094-131.238282-293.121094-293.121094s131.238282-293.121094 293.121094-293.121094 293.121094 131.238282 293.121094 293.121094-131.238282 293.121094-293.121094 293.121094zm0 0"/></svg>