<?xml version="1.0" ?><svg viewBox="0 0 32 32" xmlns="http://www.w3.org/2000/svg"><title/><g data-name="anchor fm media social" id="anchor_fm_media_social"><path d="M14,15H10.72A2,2,0,0,0,9,14a2,2,0,0,0,0,4,2,2,0,0,0,1.72-1H14a1,1,0,0,0,0-2Z"/><path d="M16.5,20.33a5,5,0,0,0,0-8.66,1,1,0,0,0-1,1.73,3,3,0,0,1,0,5.2A1,1,0,0,0,15.14,20a1,1,0,0,0,.86.5A1,1,0,0,0,16.5,20.33Z"/><path d="M17.43,23.23a8,8,0,0,0,0-14.46,1,1,0,0,0-.86,1.81,6,6,0,0,1,0,10.84A1,1,0,0,0,17,23.33,1.08,1.08,0,0,0,17.43,23.23Z"/><path d="M18.4,5.92a1,1,0,1,0-.8,1.83,9,9,0,0,1,0,16.5,1,1,0,0,0-.52,1.32,1,1,0,0,0,.92.6,1,1,0,0,0,.4-.09,11,11,0,0,0,0-20.16Z"/></g></svg>