<?xml version="1.0" encoding="utf-8"?>
<!-- Generator: Adobe Illustrator 16.0.0, SVG Export Plug-In . SVG Version: 6.00 Build 0)  -->
<!DOCTYPE svg PUBLIC "-//W3C//DTD SVG 1.1//EN" "http://www.w3.org/Graphics/SVG/1.1/DTD/svg11.dtd">
<svg version="1.1" id="Layer_1" xmlns="http://www.w3.org/2000/svg" xmlns:xlink="http://www.w3.org/1999/xlink" x="0px" y="0px"
	 width="327.756px" height="50.178px" viewBox="0 0 327.756 50.178" enable-background="new 0 0 327.756 50.178"
	 xml:space="preserve">
<g>
	<g>
		<path fill="#FFFFFF" d="M0.624,42.484L17.534,4.297c1.178-2.634,3.327-4.228,6.237-4.228h0.624c2.911,0,4.99,1.594,6.168,4.228
			l16.911,38.188c0.347,0.763,0.554,1.455,0.554,2.148c0,2.842-2.218,5.129-5.059,5.129c-2.495,0-4.158-1.456-5.128-3.674
			l-3.257-7.623H13.237l-3.396,7.97c-0.901,2.079-2.703,3.327-4.921,3.327c-2.772,0-4.92-2.218-4.92-4.99
			C0,44.009,0.277,43.247,0.624,42.484z M30.633,29.039l-6.723-16.01l-6.723,16.01H30.633z"/>
		<path fill="#FFFFFF" d="M54.678,6.168c0-2.979,2.356-5.336,5.336-5.336H74.5c11.573,0,18.573,6.861,18.573,16.771v0.139
			c0,11.228-8.732,17.05-19.613,17.05h-8.109v9.633c0,2.98-2.356,5.337-5.336,5.337s-5.336-2.356-5.336-5.337V6.168z M73.807,25.297
			c5.336,0,8.456-3.188,8.456-7.347v-0.139c0-4.782-3.327-7.346-8.664-7.346h-8.248v14.831H73.807z"/>
		<path fill="#FFFFFF" d="M97.09,25.228v-0.139C97.09,11.297,107.971,0,122.942,0c14.969,0,25.713,11.158,25.713,24.95v0.139
			c0,13.792-10.881,25.089-25.852,25.089S97.09,39.02,97.09,25.228z M137.497,25.228v-0.139c0-8.316-6.1-15.247-14.693-15.247
			s-14.555,6.792-14.555,15.108v0.139c0,8.316,6.1,15.247,14.693,15.247S137.497,33.544,137.497,25.228z"/>
		<path fill="#FFFFFF" d="M156.897,5.753c0-2.98,2.355-5.337,5.336-5.337s5.336,2.356,5.336,5.337v38.672
			c0,2.98-2.355,5.337-5.336,5.337s-5.336-2.356-5.336-5.337V5.753z"/>
		<path fill="#FFFFFF" d="M175.262,42.484l16.91-38.188c1.178-2.634,3.326-4.228,6.236-4.228h0.625c2.91,0,4.99,1.594,6.168,4.228
			l16.91,38.188c0.346,0.763,0.555,1.455,0.555,2.148c0,2.842-2.219,5.129-5.059,5.129c-2.496,0-4.16-1.456-5.129-3.674
			l-3.258-7.623h-21.346l-3.396,7.97c-0.9,2.079-2.703,3.327-4.92,3.327c-2.773,0-4.922-2.218-4.922-4.99
			C174.637,44.009,174.915,43.247,175.262,42.484z M205.27,29.039l-6.723-16.01l-6.723,16.01H205.27z"/>
		<path fill="#FFFFFF" d="M233.405,37.841c3.465,0,6.029,2.564,6.029,5.892v0.138c0,3.327-2.564,5.892-6.029,5.892
			s-6.029-2.564-6.029-5.892v-0.138C227.375,40.405,229.94,37.841,233.405,37.841z"/>
	</g>
	<g>
		<g>
			<g>
				<path fill="#FFFFFF" d="M275.54,26.232c1.121,3.442,0.527,10.817,0.527,12.688c1.042-0.701,2.162-1.337,3.36-1.908
					c1.2-0.571,2.449-1.16,3.75-1.774c1.302-0.614,2.637-1.293,4.012-2.038c1.372-0.748,2.751-1.644,4.14-2.695l0.043,9.816
					c-1.791,1.336-3.867,2.59-6.222,3.761s-4.834,2.204-7.427,3.096c-2.603,0.889-5.226,1.593-7.869,2.11
					c-2.646,0.517-5.151,0.773-7.521,0.773c-1.705,0-3.295-0.152-4.77-0.455c-1.474-0.304-2.767-0.781-3.88-1.431
					c-1.112-0.65-2.017-1.5-2.71-2.551s-1.112-2.323-1.257-3.815c-0.404,0.086-0.802,0.148-1.192,0.177
					c-0.39,0.028-0.773,0.043-1.148,0.043c-0.463,0-0.896-0.015-1.301-0.043c-0.404-0.029-0.752-0.141-1.041-0.329
					c-0.288-0.192-0.52-0.499-0.693-0.921c-0.174-0.422-0.26-1.03-0.26-1.817c0-0.701,0.174-1.351,0.521-1.951
					c0.347-0.6,0.751-1.134,1.214-1.601c0.462-0.466,0.925-0.875,1.387-1.224c0.463-0.354,0.81-0.629,1.041-0.835
					c1.618-1.402,2.934-2.572,3.945-3.504c1.012-0.936,2.023-2.023,3.034-3.266c1.012-1.243,1.813-2.258,2.406-3.045
					s1.294-1.724,2.103-2.804c0.81-1.083,1.793-2.402,2.947-3.967c1.156-1.564,2.659-3.516,4.51-5.853
					c0.376-0.524,0.795-1.033,1.257-1.532c0.463-0.498,0.976-0.942,1.539-1.336c0.563-0.394,1.186-0.715,1.863-0.964
					c0.681-0.249,1.438-0.373,2.277-0.373c1.388,0,2.455,0.156,3.216,0.463c0.742,0.304,1.299,0.679,1.647,1.116
					c0.346,0.437,0.54,0.896,0.606,1.38c0.051,0.48,0.088,0.896,0.088,1.25c0,0.701-0.284,1.474-0.825,2.319
					c-0.557,0.85-1.163,1.666-1.821,2.457c-0.671,0.788-1.301,1.51-1.892,2.167c-0.594,0.658-0.933,1.149-1.02,1.471
					c0,0.903,0.063,1.73,0.201,2.475c0.131,0.744,0.312,1.474,0.529,2.189C275.078,24.668,275.301,25.43,275.54,26.232
					 M266.312,26.044l-12.009,12.619c0.348,0,0.73,0.221,1.149,0.661c0.419,0.437,0.903,0.918,1.452,1.445
					c0.549,0.524,1.186,1.008,1.908,1.445c0.722,0.437,1.545,0.658,2.471,0.658c1.127,0,2.06-0.188,2.796-0.571
					c0.737-0.379,1.323-0.881,1.756-1.51c0.433-0.628,0.737-1.358,0.911-2.193c0.173-0.831,0.98-4.379,0.604-7.946"/>
			</g>
			<g>
				<path fill="#FFFFFF" d="M299.838,49.419c-2.694,0-5.058-0.499-7.081-1.5c-2.029-1.001-3.713-2.349-5.064-4.039
					c-1.343-1.69-2.362-3.646-3.035-5.867c-0.672-2.222-1.011-4.556-1.011-6.995c0-1.6,0.303-3.5,0.902-5.711
					c0.607-2.211,1.229-4.173,1.879-5.886c0.644-1.712,1.459-3.345,2.436-4.899c0.976-1.553,2.125-2.922,3.431-4.107
					c1.309-1.185,2.768-2.125,4.395-2.825c1.626-0.698,3.432-1.048,5.413-1.048c1.617,0,3.127,0.261,4.515,0.781
					c1.389,0.52,2.594,1.246,3.62,2.186c1.032,0.939,1.834,2.07,2.414,3.399c0.577,1.326,0.866,2.815,0.866,4.458
					c0,1.752-0.585,3.717-1.762,5.893c-1.171,2.178-2.536,4.042-4.105,5.596c-1.56,1.553-3.425,2.94-5.578,4.154
					c-2.16,1.214-4.501,2.16-7.017,2.839c0.436,0.767,0.861,1.402,1.28,1.908c0.42,0.51,0.853,0.907,1.285,1.189
					c0.434,0.282,0.89,0.48,1.372,0.592c0.479,0.112,0.99,0.17,1.54,0.17c1.734,0,3.562-0.339,5.484-1.019
					c1.922-0.676,3.793-1.525,5.614-2.543c1.821-1.016,3.542-2.125,5.159-3.328c1.619-1.199,2.991-2.337,4.118-3.41l5.592,5.679
					c-2.542,2.709-5.245,5.104-8.106,7.189c-1.242,0.892-2.579,1.77-4.009,2.634c-1.432,0.863-2.935,1.629-4.509,2.297
					c-1.576,0.672-3.209,1.207-4.899,1.608C303.286,49.217,301.573,49.419,299.838,49.419z M294.052,28.771
					c1.047,0,2.181-0.264,3.418-0.784c1.228-0.524,2.377-1.196,3.438-2.016c1.056-0.82,2.096-1.922,3.105-3.306
					c1.02-1.384,1.526-2.529,1.526-3.433c0-1.271-0.238-2.32-0.715-3.14c-0.485-0.82-1.07-1.228-1.764-1.228
					c-1.251,0-2.318,0.228-3.2,0.679c-0.883,0.451-1.627,1.037-2.218,1.759c-0.594,0.719-1.077,1.539-1.438,2.457
					c-0.362,0.921-0.781,2.055-1.265,3.414c-0.477,1.354-0.745,2.471-0.802,3.349C294.082,27.398,294.052,28.146,294.052,28.771z"/>
			</g>
		</g>
		<g>
			<ellipse fill="#FFFFFF" cx="323.774" cy="32.167" rx="3.982" ry="4.003"/>
		</g>
	</g>
</g>
</svg>
