<?xml version="1.0" encoding="UTF-8"?>
<svg width="220px" height="26px" viewBox="0 0 220 26" version="1.1" xmlns="http://www.w3.org/2000/svg" xmlns:xlink="http://www.w3.org/1999/xlink">
    <!-- Generator: Sketch 48.2 (47327) - http://www.bohemiancoding.com/sketch -->
    <title>Group 21@svg</title>
    <desc>Created with Sketch.</desc>
    <defs>
        <polygon id="path-1" points="9.2936803e-06 9.21215881e-06 74.9227695 9.21215881e-06 74.9227695 23.9516129 9.2936803e-06 23.9516129"></polygon>
    </defs>
    <g id="Carteira-/-Cadastrar-Banco-2-Copy-5" stroke="none" stroke-width="1" fill="none" fill-rule="evenodd" transform="translate(-676.000000, -14.000000)">
        <g id="Group-21" transform="translate(676.000000, 14.000000)">
            <path d="M104.904993,21.428017 L103.838696,18.8826634 L97.9568654,18.8826634 L96.8905686,21.428017 L94.5,21.428017 L99.7798889,9.38918245 L102.170457,9.38918245 L107.381553,21.428017 L104.904993,21.428017 Z M98.7823854,16.9048549 L103.013176,16.9048549 L100.914979,11.8485444 L98.7823854,16.9048549 Z M114.510263,11.6077677 C113.862456,11.4013866 113.29205,11.2981976 112.799029,11.2981976 C112.248679,11.2981976 111.812992,11.4013866 111.491955,11.6077677 C111.170918,11.8141487 111.010402,12.1007848 111.010402,12.4676844 C111.010402,12.8001872 111.12219,13.0782242 111.345769,13.3018037 C111.569349,13.5253832 111.850252,13.7088302 112.188488,13.8521504 C112.526723,13.9954706 112.988207,14.1531204 113.572954,14.3251046 C114.387012,14.5658825 115.054874,14.8066568 115.57656,15.0474347 C116.098245,15.2882126 116.542531,15.6436413 116.909431,16.1137315 C117.27633,16.5838217 117.459777,17.2029555 117.459777,17.9711517 C117.459777,18.704951 117.261999,19.3441494 116.866435,19.888766 C116.470871,20.4333827 115.926263,20.849005 115.232593,21.1356453 C114.538923,21.4222857 113.744941,21.5656037 112.850624,21.5656037 C111.910443,21.5656037 110.993208,21.3907557 110.09889,21.0410545 C109.204572,20.6913533 108.424922,20.2241365 107.759916,19.6393902 L108.723023,17.67878 C109.330701,18.2405951 110.012894,18.6820146 110.769625,19.0030518 C111.526356,19.324089 112.23148,19.4846052 112.88502,19.4846052 C113.527095,19.4846052 114.031574,19.3613517 114.398474,19.114841 C114.765373,18.8683303 114.94882,18.5329661 114.94882,18.1087384 C114.94882,17.7647699 114.837032,17.4810002 114.613453,17.2574208 C114.389873,17.0338413 114.106104,16.8532606 113.762135,16.7156732 C113.418167,16.5780858 112.948084,16.4233024 112.351872,16.2513182 C111.537813,16.0105403 110.872818,15.7754987 110.356865,15.5461864 C109.840912,15.3168741 109.399493,14.9700445 109.032593,14.5056871 C108.665694,14.0413298 108.482246,13.430795 108.482246,12.6740645 C108.482246,11.974662 108.66856,11.3641272 109.041192,10.8424418 C109.413825,10.3207563 109.941235,9.91659949 110.623439,9.62995914 C111.305643,9.34331879 112.093892,9.20000076 112.98821,9.20000076 C113.767872,9.20000076 114.538923,9.31465518 115.301386,9.54396747 C116.06385,9.77327975 116.743177,10.0828467 117.339389,10.4726776 L116.410679,12.4848828 C115.791536,12.1065175 115.15807,11.8141487 114.510263,11.6077677 Z M125.310817,11.6077677 C124.66301,11.4013866 124.092604,11.2981976 123.599583,11.2981976 C123.049234,11.2981976 122.613547,11.4013866 122.29251,11.6077677 C121.971472,11.8141487 121.810956,12.1007848 121.810956,12.4676844 C121.810956,12.8001872 121.922744,13.0782242 122.146324,13.3018037 C122.369903,13.5253832 122.650807,13.7088302 122.989042,13.8521504 C123.327278,13.9954706 123.788762,14.1531204 124.373508,14.3251046 C125.187567,14.5658825 125.855429,14.8066568 126.377114,15.0474347 C126.8988,15.2882126 127.343085,15.6436413 127.709985,16.1137315 C128.076885,16.5838217 128.260332,17.2029555 128.260332,17.9711517 C128.260332,18.704951 128.062553,19.3441494 127.666989,19.888766 C127.271426,20.4333827 126.726817,20.849005 126.033147,21.1356453 C125.339478,21.4222857 124.545496,21.5656037 123.651178,21.5656037 C122.710998,21.5656037 121.793762,21.3907557 120.899444,21.0410545 C120.005127,20.6913533 119.225476,20.2241365 118.560471,19.6393902 L119.523578,17.67878 C120.131255,18.2405951 120.813449,18.6820146 121.570179,19.0030518 C122.32691,19.324089 123.032035,19.4846052 123.685575,19.4846052 C124.327649,19.4846052 124.832129,19.3613517 125.199028,19.114841 C125.565928,18.8683303 125.749375,18.5329661 125.749375,18.1087384 C125.749375,17.7647699 125.637587,17.4810002 125.414007,17.2574208 C125.190428,17.0338413 124.906658,16.8532606 124.56269,16.7156732 C124.218721,16.5780858 123.748638,16.4233024 123.152426,16.2513182 C122.338368,16.0105403 121.673372,15.7754987 121.157419,15.5461864 C120.641467,15.3168741 120.200047,14.9700445 119.833148,14.5056871 C119.466248,14.0413298 119.282801,13.430795 119.282801,12.6740645 C119.282801,11.974662 119.469114,11.3641272 119.841747,10.8424418 C120.214379,10.3207563 120.74179,9.91659949 121.423994,9.62995914 C122.106198,9.34331879 122.894447,9.20000076 123.788765,9.20000076 C124.568426,9.20000076 125.339477,9.31465518 126.101941,9.54396747 C126.864404,9.77327975 127.543732,10.0828467 128.139943,10.4726776 L127.211233,12.4848828 C126.59209,12.1065175 125.958625,11.8141487 125.310817,11.6077677 Z M130.44452,9.38918245 L132.749097,9.38918245 L132.749097,21.428017 L130.44452,21.428017 L130.44452,9.38918245 Z M144.099998,9.38918245 L146.335782,9.38918245 L146.335782,21.428017 L144.151593,21.428017 L137.960193,13.1384195 L137.960193,21.428017 L135.707211,21.428017 L135.707211,9.38918245 L137.891399,9.38918245 L144.099998,17.6959783 L144.099998,9.38918245 Z M158.202633,21.428017 L157.136336,18.8826634 L151.254506,18.8826634 L150.188209,21.428017 L147.797641,21.428017 L153.077529,9.38918245 L155.468098,9.38918245 L160.679194,21.428017 L158.202633,21.428017 Z M152.080026,16.9048549 L156.310816,16.9048549 L154.21262,11.8485444 L152.080026,16.9048549 Z M160.799582,9.38918245 L170.619831,9.38918245 L170.619831,11.4357843 L166.870594,11.4357843 L166.870594,21.428017 L164.548819,21.428017 L164.548819,11.4357843 L160.799582,11.4357843 L160.799582,9.38918245 Z M175.142993,18.7106801 C175.681877,19.2495639 176.4042,19.5190018 177.309984,19.5190018 C178.215767,19.5190018 178.929491,19.2495639 179.451176,18.7106801 C179.972862,18.1717962 180.233701,17.4265425 180.233701,16.4748965 L180.233701,9.38918245 L182.538277,9.38918245 L182.538277,16.4748965 C182.538277,17.5182674 182.326167,18.4269037 181.901939,19.2008326 C181.477711,19.9747616 180.872909,20.5680982 180.087515,20.9808603 C179.30212,21.3936224 178.376286,21.6000004 177.309984,21.6000004 C176.232216,21.6000004 175.294916,21.3936224 174.498056,20.9808603 C173.701196,20.5680982 173.090661,19.9747616 172.666433,19.2008326 C172.242205,18.4269037 172.030095,17.5182674 172.030095,16.4748965 L172.030095,9.38918245 L174.334672,9.38918245 L174.334672,16.4748965 C174.334672,17.4265425 174.604109,18.1717962 175.142993,18.7106801 Z M192.788485,21.428017 L190.707487,17.8679617 C190.615762,17.8794273 190.472444,17.88516 190.277528,17.88516 L187.560191,17.88516 L187.560191,21.428017 L185.255614,21.428017 L185.255614,9.38918245 L190.277528,9.38918245 C191.836852,9.38918245 193.040723,9.75034387 193.889179,10.4726776 C194.737634,11.1950112 195.161855,12.2154356 195.161855,13.5339812 C195.161855,14.4741616 194.958344,15.2767425 194.551315,15.9417481 C194.144285,16.6067537 193.550949,17.1055005 192.771287,17.4380033 L195.41983,21.428017 L192.788485,21.428017 Z M187.560191,15.8557565 L190.277528,15.8557565 C191.148915,15.8557565 191.813911,15.6665767 192.272535,15.2882114 C192.73116,14.9098461 192.960469,14.3480395 192.960469,13.6027746 C192.960469,12.8689753 192.73116,12.318634 192.272535,11.9517344 C191.813911,11.5848347 191.148915,11.4013877 190.277528,11.4013877 L187.560191,11.4013877 L187.560191,15.8557565 Z M206.598748,21.428017 L205.532452,18.8826634 L199.650621,18.8826634 L198.584324,21.428017 L196.193756,21.428017 L201.473644,9.38918245 L203.864213,9.38918245 L209.075309,21.428017 L206.598748,21.428017 Z M200.476141,16.9048549 L204.706931,16.9048549 L202.608735,11.8485444 L200.476141,16.9048549 Z M216.204018,11.6077677 C215.556211,11.4013866 214.985806,11.2981976 214.492784,11.2981976 C213.942435,11.2981976 213.506748,11.4013866 213.185711,11.6077677 C212.864673,11.8141487 212.704157,12.1007848 212.704157,12.4676844 C212.704157,12.8001872 212.815945,13.0782242 213.039525,13.3018037 C213.263104,13.5253832 213.544008,13.7088302 213.882243,13.8521504 C214.220479,13.9954706 214.681963,14.1531204 215.266709,14.3251046 C216.080768,14.5658825 216.74863,14.8066568 217.270315,15.0474347 C217.792001,15.2882126 218.236287,15.6436413 218.603186,16.1137315 C218.970086,16.5838217 219.153533,17.2029555 219.153533,17.9711517 C219.153533,18.704951 218.955754,19.3441494 218.56019,19.888766 C218.164627,20.4333827 217.620018,20.849005 216.926349,21.1356453 C216.232679,21.4222857 215.438697,21.5656037 214.544379,21.5656037 C213.604199,21.5656037 212.686963,21.3907557 211.792645,21.0410545 C210.898328,20.6913533 210.118678,20.2241365 209.453672,19.6393902 L210.416779,17.67878 C211.024456,18.2405951 211.70665,18.6820146 212.463381,19.0030518 C213.220111,19.324089 213.925236,19.4846052 214.578776,19.4846052 C215.22085,19.4846052 215.72533,19.3613517 216.092229,19.114841 C216.459129,18.8683303 216.642576,18.5329661 216.642576,18.1087384 C216.642576,17.7647699 216.530788,17.4810002 216.307208,17.2574208 C216.083629,17.0338413 215.799859,16.8532606 215.455891,16.7156732 C215.111922,16.5780858 214.641839,16.4233024 214.045627,16.2513182 C213.231569,16.0105403 212.566573,15.7754987 212.050621,15.5461864 C211.534668,15.3168741 211.093248,14.9700445 210.726349,14.5056871 C210.359449,14.0413298 210.176002,13.430795 210.176002,12.6740645 C210.176002,11.974662 210.362315,11.3641272 210.734948,10.8424418 C211.10758,10.3207563 211.634991,9.91659949 212.317195,9.62995914 C212.999399,9.34331879 213.787648,9.20000076 214.681966,9.20000076 C215.461628,9.20000076 216.232679,9.31465518 216.995142,9.54396747 C217.757605,9.77327975 218.436933,10.0828467 219.033145,10.4726776 L218.104434,12.4848828 C217.485291,12.1065175 216.851826,11.8141487 216.204018,11.6077677 Z" id="Assinaturas" fill="#FFFFFF"></path>
            <g id="logo/logotipo/white" transform="translate(0.000000, 2.000000)">
                <g id="Page-1">
                    <mask id="mask-2" fill="white">
                        <use xlink:href="#path-1"></use>
                    </mask>
                    <g id="Clip-2"></g>
                    <path d="M27.8612546,16.6821234 C26.1507528,16.6821234 24.9421097,15.3482949 24.9421097,13.3816832 C24.9421097,11.4375492 26.1507528,10.1263827 27.8612546,10.1263827 C29.0698978,10.1038129 30.0050279,10.6010852 30.6664591,11.4148873 L33.0382063,9.71948161 C31.9435037,8.09187739 30.0734294,7.16494997 27.7243587,7.16494997 C23.9613476,7.16494997 21.4299349,9.67424991 21.4299349,13.4043451 C21.4299349,17.0890244 23.9613476,19.5756624 27.6788197,19.5756624 C30.1874628,19.5756624 32.1031691,18.5810257 33.1295632,16.8856199 L30.7119981,15.2580157 C30.0961989,16.2075129 29.1155297,16.6821234 27.8612546,16.6821234 Z M57.6208271,15.2805855 C57.2490799,16.320454 56.2396933,17.1115942 54.7571654,17.1115942 C53.5713848,17.1115942 52.8351394,16.496959 52.8351394,15.5701237 C52.8351394,14.5980567 53.490158,14.1867338 54.8356041,14.1867338 L57.6208271,14.1867338 L57.6208271,15.2805855 Z M55.5603253,7.14238018 C53.416552,7.14238018 51.8428532,7.63974463 50.0185037,8.54401014 L51.1131134,10.9401848 C52.3902509,10.2394158 53.6802138,9.87765437 54.7748234,9.87765437 C56.4624628,9.87765437 57.3420167,10.6237471 57.3420167,11.9122518 L57.3420167,12.1600588 L53.9409944,12.1600588 C50.9306784,12.1600588 49.2659015,13.5282487 49.2659015,15.8113901 C49.2659015,18.0268222 50.863671,19.6037595 53.4864405,19.6037595 C55.1968494,19.6037595 56.4126487,19.0331584 57.3420167,18.0159518 L57.3420167,19.3455427 L60.782816,19.3455427 L60.7601394,11.4580923 C60.737277,8.72281815 58.8442472,7.14238018 55.5603253,7.14238018 Z M71.3176673,7.18549308 L68.3046561,14.7355021 L65.2986152,7.18549308 L61.6725,7.18549308 L66.475474,19.3191959 L64.626868,23.9516221 L68.3040056,23.9516221 L74.9227788,7.18549308 L71.3176673,7.18549308 Z M41.8817007,3.50062956 L38.6617193,3.50062956 L38.6617193,6.44852038 L41.6993587,6.44852038 C43.7062361,6.44852038 44.8465706,7.41487584 44.8465706,9.17817516 C44.8465706,10.9867062 43.7062361,11.9758157 41.6993587,11.9758157 L38.6617193,11.9758157 L38.6617193,6.44852038 L35.1301208,6.44852038 L35.1301208,19.3455427 L38.6617193,19.3455427 L38.6617193,14.9237065 L41.8817007,14.9237065 C45.9412732,14.9237065 48.2673885,12.7386745 48.2673885,9.05390313 C48.2673885,5.54996641 45.9412732,3.50062956 41.8817007,3.50062956 Z M16.6046561,5.83434575 L21.3134851,5.83434575 L21.3134851,1.16682125 L16.6046561,1.16682125 L16.6046561,5.83434575 Z M15.4275186,7.00124991 L22.4907156,7.00124991 L22.4907156,9.21215881e-06 L15.4275186,9.21215881e-06 L15.4275186,7.00124991 Z M6.87816914,3.50062956 L3.53160781,3.50062956 L3.53160781,6.44852038 L6.69564126,6.44852038 C8.70261152,6.44852038 9.8429461,7.41487584 9.8429461,9.17817516 C9.8429461,10.9867062 8.70261152,11.9758157 6.69564126,11.9758157 L3.53160781,11.9758157 L3.53160781,6.44852038 L9.2936803e-06,6.44852038 L9.2936803e-06,19.3455427 L3.53160781,19.3455427 L3.53160781,14.9237065 L6.87816914,14.9237065 C10.9375558,14.9237065 13.2637639,12.7386745 13.2637639,9.05390313 C13.2637639,5.54996641 10.9375558,3.50062956 6.87816914,3.50062956 Z M17.7818866,4.66744159 L20.1362546,4.66744159 L20.1362546,2.3337254 L17.7818866,2.3337254 L17.7818866,4.66744159 Z M15.4275186,19.3455427 L18.9591171,19.3455427 L18.9591171,9.21216802 L15.4275186,9.21216802 L15.4275186,19.3455427 Z" id="Fill-1" fill="#FFFFFF" mask="url(#mask-2)"></path>
                </g>
            </g>
            <rect id="Rectangle-4" fill="#FFFFFF" x="84" y="2" width="1.5" height="24"></rect>
            <path d="M198.656,0.776 C199.013335,1.02666792 199.192,1.36799784 199.192,1.8 C199.192,2.09866816 199.105334,2.35866556 198.932,2.58 C198.758666,2.80133444 198.522668,2.9519996 198.224,3.032 C198.586668,3.10133368 198.871999,3.2626654 199.08,3.516 C199.288001,3.7693346 199.392,4.07999816 199.392,4.448 C199.392,4.9280024 199.202669,5.30666528 198.824,5.584 C198.445331,5.86133472 197.93067,6 197.28,6 L194.616,6 L194.616,0.4 L197.192,0.4 C197.81067,0.4 198.298665,0.52533208 198.656,0.776 Z M197.692,2.492 C197.828001,2.38266612 197.896,2.22933432 197.896,2.032 C197.896,1.83999904 197.828001,1.6906672 197.692,1.584 C197.555999,1.4773328 197.368001,1.42666664 197.128,1.432 L195.88,1.432 L195.88,2.656 L197.128,2.656 C197.368001,2.656 197.555999,2.60133388 197.692,2.492 Z M197.832,4.788 C198.002668,4.6679994 198.088,4.5013344 198.088,4.288 C198.088,4.08533232 198.002668,3.92533392 197.832,3.808 C197.661332,3.69066608 197.426668,3.63466664 197.128,3.64 L195.88,3.64 L195.88,4.968 L197.128,4.968 C197.426668,4.968 197.661332,4.9080006 197.832,4.788 Z M201.312,0.4 L205.576,0.4 L205.576,1.448 L202.576,1.448 L202.576,2.664 L205.272,2.664 L205.272,3.712 L202.576,3.712 L202.576,4.952 L205.664,4.952 L205.664,6 L201.312,6 L201.312,0.4 Z M207.104,0.4 L211.784,0.4 L211.784,1.472 L210.072,1.472 L210.072,6 L208.808,6 L208.808,1.472 L207.104,1.472 L207.104,0.4 Z M217.6,6 L217.16,4.912 L214.568,4.912 L214.128,6 L212.824,6 L215.256,0.4 L216.56,0.4 L218.952,6 L217.6,6 Z M214.984,3.896 L216.752,3.896 L215.872,1.72 L214.984,3.896 Z" id="BETA" fill="#FFFFFF"></path>
        </g>
    </g>
</svg>